<svg xmlns="http://www.w3.org/2000/svg" viewBox="0 0 64 64">
  <defs>
    <linearGradient id="g" x1="0%" y1="0%" x2="100%" y2="100%">
      <stop offset="0%" style="stop-color:#6c5ce7"/>
      <stop offset="100%" style="stop-color:#00cec9"/>
    </linearGradient>
  </defs>
  <rect width="64" height="64" rx="14" fill="url(#g)"/>
  <!-- Controller body -->
  <path d="M12 30 C12 24 18 20 24 20 L40 20 C46 20 52 24 52 30 L52 34 C52 38 50 44 44 46 C42 47 40 44 38 40 L26 40 C24 44 22 47 20 46 C14 44 12 38 12 34 Z" fill="white" opacity="0.95"/>
  <!-- D-pad -->
  <rect x="19" y="28" width="3" height="9" rx="1" fill="url(#g)"/>
  <rect x="16" y="31" width="9" height="3" rx="1" fill="url(#g)"/>
  <!-- Buttons -->
  <circle cx="42" cy="29" r="2.2" fill="#ff6b6b"/>
  <circle cx="47" cy="32" r="2.2" fill="#00cec9"/>
  <circle cx="42" cy="35" r="2.2" fill="#ffd93d"/>
  <circle cx="37" cy="32" r="2.2" fill="#6c5ce7"/>
  <!-- Glow effect -->
  <circle cx="32" cy="26" r="1.5" fill="#00cec9" opacity="0.8"/>
</svg>